HIERARCHY
ROOT Hips
{
    OFFSET 0.000000 0.000000 0.000000
    CHANNELS 6 Xposition Yposition Zposition Zrotation Xrotation Yrotation
    JOINT Spine
    {
        OFFSET -0.000000 7.236184 0.000000
        CHANNELS 3 Zrotation Xrotation Yrotation
        JOINT Spine1
        {
            OFFSET -0.000000 20.420147 0.000000
            CHANNELS 3 Zrotation Xrotation Yrotation
            JOINT Neck
            {
                OFFSET -0.000000 20.336288 1.848754
                CHANNELS 3 Zrotation Xrotation Yrotation
                JOINT Head
                {
                    OFFSET -0.000000 12.354461 -1.764923
                    CHANNELS 3 Zrotation Xrotation Yrotation
                    End Site
                    {
                        OFFSET -0.000000 22.061537 0.000000
                    }
                }
            }
            JOINT LeftShoulder
            {
                OFFSET 3.573296 18.396038 -0.314103
                CHANNELS 3 Zrotation Xrotation Yrotation
                JOINT LeftArm
                {
                    OFFSET 10.880760 0.000000 0.000000
                    CHANNELS 3 Zrotation Xrotation Yrotation
                    JOINT LeftForeArm
                    {
                        OFFSET 27.185530 0.000000 0.000000
                        CHANNELS 3 Zrotation Xrotation Yrotation
                        JOINT LeftHand
                        {
                            OFFSET 27.825975 0.000000 0.000000
                            CHANNELS 3 Zrotation Xrotation Yrotation
                            End Site
                            {
                                OFFSET 13.236923 0.000000 0.000000
                            }
                        }
                    }
                }
            }
            JOINT RightShoulder
            {
                OFFSET -3.474926 18.396038 -0.314103
                CHANNELS 3 Zrotation Xrotation Yrotation
                JOINT RightArm
                {
                    OFFSET -10.880760 0.000000 0.000000
                    CHANNELS 3 Zrotation Xrotation Yrotation
                    JOINT RightForeArm
                    {
                        OFFSET -27.185530 0.000000 0.000000
                        CHANNELS 3 Zrotation Xrotation Yrotation
                        JOINT RightHand
                        {
                            OFFSET -27.825975 0.000000 0.000000
                            CHANNELS 3 Zrotation Xrotation Yrotation
                            End Site
                            {
                                OFFSET -13.236923 0.000000 0.000000
                            }
                        }
                    }
                }
            }
        }
    }
    JOINT LeftUpLeg
    {
        OFFSET 8.824615 0.000000 0.000000
        CHANNELS 3 Zrotation Xrotation Yrotation
        JOINT LeftLeg
        {
            OFFSET -0.000000 -35.111282 0.000000
            CHANNELS 3 Zrotation Xrotation Yrotation
            JOINT LeftFoot
            {
                OFFSET -0.000000 -42.324711 0.000000
                CHANNELS 3 Zrotation Xrotation Yrotation
                JOINT LeftToeBase
                {
                    OFFSET -0.000000 -5.735999 13.236923
                    CHANNELS 3 Zrotation Xrotation Yrotation
                    End Site
                    {
                        OFFSET -0.000000 0.000000 3.529846
                    }
                }
            }
        }
    }
    JOINT RightUpLeg
    {
        OFFSET -8.824615 0.000000 0.000000
        CHANNELS 3 Zrotation Xrotation Yrotation
        JOINT RightLeg
        {
            OFFSET -0.000000 -35.111282 0.000000
            CHANNELS 3 Zrotation Xrotation Yrotation
            JOINT RightFoot
            {
                OFFSET -0.000000 -42.324711 0.000000
                CHANNELS 3 Zrotation Xrotation Yrotation
                JOINT RightToeBase
                {
                    OFFSET -0.000000 -5.735999 13.236923
                    CHANNELS 3 Zrotation Xrotation Yrotation
                    End Site
                    {
                        OFFSET -0.000000 0.000000 3.529846
                    }
                }
            }
        }
    }
}
MOTION
Frames:    7
Frame Time:    0.008333
-7.645473    81.475685    100.109688    -0.271140    -8.085640    -177.032623    -3.117117    -9.292951    0.355607    -1.865733    7.899161    0.737834    0.877229    15.506433    -11.062274    10.754690    5.646484    -10.534274    8.641365    5.421863    -10.346128    -16.459892    21.086515    -41.204990    22.939545    -6.572968    -49.939342    20.679804    3.092360    -6.454257    -2.210663    10.645617    3.037553    22.375835    18.392580    37.235157    -31.859838    -12.050799    55.243046    -25.547556    3.572880    6.729783    0.738211    -17.318485    -4.923277    1.335960    25.479322    -1.007365    -4.767085    -12.735778    -9.821569    0.837395    -0.436619    -0.928953    -7.860853    -10.074579    -0.068644    2.380400    14.980330    4.096144    3.107196    -8.769337    -10.638331    -2.116448    -1.037841    2.292347    
-7.561785    81.493286    100.012756    -0.324716    -8.190166    -177.037445    -3.115194    -9.380898    0.330851    -1.781890    7.873457    0.709192    0.764443    15.969865    -11.128499    10.724817    5.842844    -10.620605    8.583120    5.779598    -9.522443    -17.273109    21.673817    -39.080006    23.055126    -7.255603    -51.848698    20.740469    2.990449    -6.179839    -2.128587    11.028691    2.227840    23.265341    18.895241    35.308018    -32.334484    -12.886904    57.515068    -25.980536    3.886178    6.500919    0.773873    -17.208780    -4.953988    1.288830    25.220074    -1.004860    -4.791095    -12.694238    -9.781425    0.812242    -0.435587    -0.901048    -7.848117    -10.037745    -0.080647    2.368616    14.847797    4.043642    3.072158    -8.770504    -10.590171    -2.138584    -1.019343    2.316263    
-7.479522    81.509407    99.915489    -0.376368    -8.297916    -177.045746    -3.115018    -9.466320    0.307290    -1.683533    7.852593    0.680821    0.649459    16.411135    -11.189142    10.683503    6.005450    -10.699960    8.515241    6.152542    -8.680021    -18.140333    22.244230    -36.968399    23.117611    -7.890262    -53.641239    20.788158    2.892101    -5.902908    -2.069144    11.411626    1.402210    24.203964    19.385126    33.368176    -32.715496    -13.682262    59.683395    -26.430721    4.187126    6.277080    0.809644    -17.105402    -4.984164    1.244205    24.967947    -1.008942    -4.812498    -12.658000    -9.732295    0.787427    -0.433897    -0.873517    -7.835045    -10.004954    -0.081068    2.360940    14.716122    3.990458    3.031329    -8.774117    -10.550273    -2.157427    -1.002256    2.336615    
-7.398417    81.524025    99.817642    -0.426309    -8.408010    -177.057953    -3.116454    -9.549121    0.284993    -1.571764    7.835772    0.652996    0.532703    16.831423    -11.244143    10.630851    6.137954    -10.772581    8.438565    6.542356    -7.817576    -19.068117    22.790859    -34.871014    23.131428    -8.465836    -55.318409    20.825716    2.805987    -5.627625    -2.031246    11.795742    0.562710    25.195448    19.858864    31.413624    -33.003876    -14.422138    61.746826    -26.896530    4.479683    6.063362    0.845466    -17.008274    -5.010386    1.203740    24.724651    -1.024174    -4.831601    -12.627771    -9.672860    0.762995    -0.432015    -0.846411    -7.821615    -9.975772    -0.070679    2.357144    14.586519    3.941608    2.985175    -8.781198    -10.522224    -2.173107    -0.987049    2.353546    
-7.318348    81.537186    99.719025    -0.475216    -8.519429    -177.074234    -3.118939    -9.628818    0.263890    -1.449624    7.821637    0.625938    0.415259    17.233255    -11.293668    10.568045    6.243504    -10.838746    8.355072    6.947850    -6.934892    -20.064142    23.309807    -32.785522    23.103226    -8.972994    -56.882889    20.854523    2.741254    -5.357818    -2.012222    12.182276    -0.287964    26.242821    20.313547    29.441259    -33.202522    -15.093372    63.703831    -27.376518    4.767269    5.864941    0.880377    -16.917015    -5.030885    1.168870    24.491596    -1.053161    -4.849105    -12.603986    -9.602573    0.738835    -0.430382    -0.819608    -7.808465    -9.949543    -0.050556    2.357056    14.460374    3.902099    2.933178    -8.792885    -10.510028    -2.186406    -0.972633    2.367902    
-7.239721    81.548874    99.620110    -0.523104    -8.630118    -177.093933    -3.121196    -9.703815    0.244169    -1.321651    7.808528    0.599488    0.298834    17.617807    -11.337641    10.497725    6.323530    -10.898193    8.268214    7.364212    -6.038645    -21.128565    23.795982    -30.720793    23.042147    -9.402850    -58.329086    20.876194    2.706637    -5.098378    -2.009799    12.568607    -1.140770    27.342680    20.743793    27.459269    -33.314743    -15.680933    65.541603    -27.864496    5.051430    5.687919    0.913497    -16.831417    -5.046279    1.140009    24.271368    -1.094864    -4.865845    -12.586875    -9.522731    0.715064    -0.430419    -0.793239    -7.795791    -9.925402    -0.022242    2.360173    14.339525    3.874006    2.877149    -8.809830    -10.514459    -2.197908    -0.959341    2.380313    
-7.161701    81.559235    99.519974    -0.570314    -8.739937    -177.116150    -3.121833    -9.773729    0.225098    -1.190037    7.794167    0.573226    0.182684    17.994040    -11.376761    10.422627    6.379334    -10.951535    8.180241    7.791854    -5.123608    -22.278982    24.254572    -28.649796    22.959055    -9.757398    -59.674393    20.891020    2.708974    -4.849268    -2.021812    12.957634    -1.999658    28.508038    21.154009    25.443907    -33.348957    -16.183132    67.273827    -28.362793    5.336117    5.534770    0.944693    -16.750521    -5.058205    1.116892    24.063503    -1.147500    -4.883028    -12.576473    -9.434523    0.691257    -0.432296    -0.766831    -7.783378    -9.902202    0.013501    2.366389    14.223766    3.856637    2.817198    -8.832664    -10.535061    -2.207970    -0.946992    2.391169    
